<svg width="20" height="19" viewBox="0 0 20 19" fill="none" xmlns="http://www.w3.org/2000/svg">
<path d="M1.52081 0.979126L3.42748 1.30913L4.31023 11.826C4.34414 12.2399 4.53284 12.6257 4.83867 12.9066C5.14451 13.1875 5.545 13.3427 5.96023 13.3413H15.9611C16.3586 13.3417 16.743 13.1986 17.0435 12.9382C17.344 12.6778 17.5403 12.3177 17.5964 11.9241L18.4672 5.91263C18.4904 5.75275 18.4819 5.58987 18.4421 5.43329C18.4023 5.27671 18.3321 5.12951 18.2354 5.00011C18.1387 4.8707 18.0174 4.76163 17.8785 4.67913C17.7396 4.59663 17.5858 4.54231 17.4259 4.51929C17.3672 4.51288 3.73365 4.50829 3.73365 4.50829" stroke="#272343" stroke-width="1.5" stroke-linecap="round" stroke-linejoin="round"/>
<path d="M11.9479 7.89539H14.4898" stroke="#272343" stroke-width="1.5" stroke-linecap="round" stroke-linejoin="round"/>
<path fill-rule="evenodd" clip-rule="evenodd" d="M5.5578 16.5194C5.62502 16.5165 5.69213 16.5272 5.75509 16.551C5.81805 16.5747 5.87556 16.611 5.92414 16.6575C5.97273 16.704 6.01139 16.7599 6.03781 16.8218C6.06422 16.8837 6.07784 16.9503 6.07784 17.0176C6.07784 17.0849 6.06422 17.1515 6.03781 17.2133C6.01139 17.2752 5.97273 17.3311 5.92414 17.3777C5.87556 17.4242 5.81805 17.4605 5.75509 17.4842C5.69213 17.5079 5.62502 17.5187 5.5578 17.5158C5.42936 17.5103 5.30801 17.4554 5.21908 17.3626C5.13015 17.2697 5.08051 17.1461 5.08051 17.0176C5.08051 16.889 5.13015 16.7654 5.21908 16.6726C5.30801 16.5798 5.42936 16.5249 5.5578 16.5194Z" fill="#272343" stroke="#272343" stroke-width="1.5" stroke-linecap="round" stroke-linejoin="round"/>
<path fill-rule="evenodd" clip-rule="evenodd" d="M15.8988 16.5194C16.0312 16.5194 16.1583 16.572 16.252 16.6657C16.3457 16.7594 16.3983 16.8865 16.3983 17.019C16.3983 17.1515 16.3457 17.2786 16.252 17.3723C16.1583 17.4659 16.0312 17.5186 15.8988 17.5186C15.7663 17.5186 15.6392 17.4659 15.5455 17.3723C15.4518 17.2786 15.3992 17.1515 15.3992 17.019C15.3992 16.8865 15.4518 16.7594 15.5455 16.6657C15.6392 16.572 15.7663 16.5194 15.8988 16.5194Z" fill="#272343" stroke="#272343" stroke-width="1.5" stroke-linecap="round" stroke-linejoin="round"/>
</svg>
